:SAMPLES-PER-SECOND 30
:FULLY-SPECIFIED
:DEGREES
112
root  -40.5588 37.7912 38.6408 -170.184 -50.9219 163.507
RightUpLeg  -16.6645 10.7696 -9.41406
RightLeg  72.0292 -2.43888 -9.29381
RightFoot  -10.0395 -0.0449843 -1.91314
RightToes  1.16414e-010 0 -3.6325e-017
Spine  9.90023 -0.124512 -5.66313
Spine1  2.85211 -0.956116 2.6581
HEad  -9.85172 -14.3975 6.21373
LeftShoulder1  6.70059 -9.52302 -44.788
LeftArm  -5.0276 38.4468 -16.5098
LeftForeArm  175.989 -57.8543 -164.639
LeftHand  -0.244104 0.0205437 5.32207
RightShoulder  5.8023 8.81267 40.9206
RightArm  7.65847 -24.0935 35.7605
RightForeArm  154.984 75.1094 141.411
RightHand  -0.0333412 -8.40154 -0.171285
LeftUpLeg  -15.0535 21.3473 2.29092
LeftLeg  33.8344 -0.645083 -0.120176
LeftFoot  -9.7302 0.224439 -11.951
LeftToes  9.04034e-010 7.59002e-011 -1.12606e-011
113
root  -42.1128 37.7539 38.4103 -171.01 -47.0545 163.034
RightUpLeg  -20.3398 8.96372 -8.89651
RightLeg  72.2381 -2.62248 -10.1172
RightFoot  -12.006 -0.0916584 -2.05246
RightToes  1.16414e-010 0 -3.6325e-017
Spine  11.8364 -1.14364 -8.68317
Spine1  2.41406 -2.77372 4.30691
HEad  -9.29352 -11.5922 7.47122
LeftShoulder1  6.8275 -9.70314 -45.0292
LeftArm  -4.36536 32.5077 -14.9741
LeftForeArm  176.093 -61.3379 -162.518
LeftHand  -0.244104 0.0205437 5.32207
RightShoulder  5.84488 8.71393 41.5987
RightArm  4.41763 -28.413 35.2254
RightForeArm  141.309 77.9059 128.999
RightHand  0.00692917 -11.0051 -1.41932
LeftUpLeg  -11.3078 23.2138 1.51413
LeftLeg  35.3631 0.522659 0.760983
LeftFoot  -14.1061 -0.21438 -12.3139
LeftToes  9.04034e-010 7.59002e-011 -1.12606e-011
114
root  -43.6826 38.0421 37.9896 -172.456 -43.2763 164.152
RightUpLeg  -22.7742 6.04695 -6.13211
RightLeg  67.9654 -3.58064 -10.3961
RightFoot  -13.9891 -0.131247 -1.58226
RightToes  1.16414e-010 0 -3.6325e-017
Spine  12.5365 -2.32805 -10.3251
Spine1  1.95953 -4.69318 6.50271
HEad  -8.30067 -8.29923 8.41151
LeftShoulder1  6.92656 -10.0326 -44.5532
LeftArm  -4.64321 29.8712 -16.2574
LeftForeArm  176.959 -60.6648 -162.989
LeftHand  -0.244104 0.0205437 5.32207
RightShoulder  5.45493 8.35375 39.8636
RightArm  7.75174 -33.6689 32.0594
RightForeArm  144.035 75.8871 136.663
RightHand  -0.00202553 -10.7356 -1.18808
LeftUpLeg  -6.08008 25.067 1.81269
LeftLeg  32.8849 2.16394 1.85824
LeftFoot  -15.2895 -0.359493 -13.0193
LeftToes  9.04034e-010 7.59002e-011 -1.12606e-011
115
root  -45.2416 38.619 37.3285 -173.569 -38.8899 165.491
RightUpLeg  -23.6918 2.62116 -2.34773
RightLeg  59.8257 -5.58647 -10.7281
RightFoot  -14.8946 -0.138796 -1.21897
RightToes  1.16414e-010 0 -3.6325e-017
Spine  12.0034 -3.53962 -11.0155
Spine1  1.81111 -6.25022 7.77484
HEad  -6.79984 -5.23218 7.49734
LeftShoulder1  6.70535 -9.87354 -43.5927
LeftArm  -4.44709 28.8717 -19.1018
LeftForeArm  177.302 -57.643 -164.887
LeftHand  -0.244104 0.0205437 5.32207
RightShoulder  4.97447 8.05492 37.029
RightArm  15.1272 -38.1845 27.4733
RightForeArm  149.012 71.5288 148.055
RightHand  -0.00429043 -8.74248 -1.40423
LeftUpLeg  -0.0829589 27.743 2.63901
LeftLeg  28.0189 3.28294 2.26959
LeftFoot  -13.5228 -0.193881 -14.513
LeftToes  9.04034e-010 7.59002e-011 -1.12606e-011
116
root  -46.7929 39.3613 36.45 -173.95 -33.9099 166.123
RightUpLeg  -22.6831 -1.40001 1.28982
RightLeg  48.4815 -8.24579 -10.1826
RightFoot  -14.5637 -0.123816 -0.902898
RightToes  1.16414e-010 0 -3.6325e-017
Spine  10.3821 -4.59618 -10.4329
Spine1  1.90298 -6.99345 6.94502
HEad  -4.94791 -3.16941 6.02166
LeftShoulder1  6.36998 -9.44725 -42.729
LeftArm  -3.25857 27.8701 -21.9487
LeftForeArm  178.175 -55.4597 -166.123
LeftHand  -0.244104 0.0205437 5.32207
RightShoulder  4.62443 7.8793 34.6694
RightArm  20.7131 -41.8991 23.9809
RightForeArm  152.795 68.2245 153.543
RightHand  -0.0366425 -8.1853 -0.423584
LeftUpLeg  6.2993 31.7903 3.80277
LeftLeg  22.3847 3.06743 1.6637
LeftFoot  -9.3905 0.369972 -17.5773
LeftToes  9.04034e-010 7.59002e-011 -1.12606e-011
117
root  -48.3198 40.0237 35.4479 -173.743 -29.0863 166.121
RightUpLeg  -20.3099 -6.77059 4.46319
RightLeg  35.5091 -9.71982 -7.70492
RightFoot  -13.8665 -0.0895709 0.217643
RightToes  1.16414e-010 0 -3.6325e-017
Spine  8.49501 -5.22429 -8.79727
Spine1  1.57447 -6.95773 5.18934
HEad  -3.04369 -2.48634 4.68577
LeftShoulder1  6.28167 -9.33328 -42.4936
LeftArm  -1.82008 26.7717 -24.6413
LeftForeArm  -179.436 -54.9704 -166.544
LeftHand  -0.244104 0.0205437 5.32207
RightShoulder  4.343 7.69956 32.8219
RightArm  21.9133 -46.1402 22.9591
RightForeArm  158.476 66.5387 156.151
RightHand  -0.114364 -8.83055 2.10073
LeftUpLeg  11.9221 34.7219 4.86077
LeftLeg  17.7297 3.33709 0.445323
LeftFoot  -2.93723 1.55146 -20.7156
LeftToes  9.04034e-010 7.59002e-011 -1.12606e-011
118
root  -49.7778 40.3999 34.4101 -173.423 -25.1056 165.786
RightUpLeg  -17.4634 -13.7138 7.09268
RightLeg  23.4824 -8.22731 -4.12029
RightFoot  -13.1472 -0.0412125 3.19962
RightToes  1.16414e-010 0 -3.6325e-017
Spine  7.2122 -5.3907 -7.35059
Spine1  0.859744 -6.67739 4.1849
HEad  -2.02468 -2.48242 2.99773
LeftShoulder1  6.40703 -9.53798 -42.674
LeftArm  -0.74131 25.829 -27.7991
LeftForeArm  -177.499 -55.6254 -166.37
LeftHand  -0.244104 0.0205437 5.32207
RightShoulder  4.1524 7.67585 31.199
RightArm  19.9498 -50.6494 23.9497
RightForeArm  162.217 65.2655 157.865
RightHand  -0.183918 -9.37531 3.71247
LeftUpLeg  14.8512 34.7619 4.86042
LeftLeg  16.7264 3.59116 -0.608243
LeftFoot  4.14847 2.91038 -21.4536
LeftToes  9.04034e-010 7.59002e-011 -1.12606e-011
119
root  -51.1597 40.3949 33.3763 -173.563 -22.2835 165.294
RightUpLeg  -14.3863 -18.1686 7.89263
RightLeg  15.4805 -7.40741 -1.0123
RightFoot  -12.2969 -0.0280047 5.8186
RightToes  1.16414e-010 0 -3.6325e-017
Spine  6.91819 -5.44128 -6.90463
Spine1  0.328856 -6.67288 4.48165
HEad  -2.12287 -2.14172 0.859979
LeftShoulder1  6.56471 -9.73654 -43.0949
LeftArm  -0.119302 24.8912 -30.6333
LeftForeArm  -177.514 -57.0388 -165.64
LeftHand  -0.244104 0.0205437 5.32207
RightShoulder  4.15022 8.04396 29.978
RightArm  16.0125 -53.9653 26.4463
RightForeArm  161.132 64.7635 158.218
RightHand  -0.193011 -10.269 3.14012
LeftUpLeg  15.1583 36.5573 4.87509
LeftLeg  21.2122 -2.3034 -0.45802
LeftFoot  8.4946 3.56291 -20.4773
LeftToes  9.04034e-010 7.59002e-011 -1.12606e-011
